<svg xmlns="http://www.w3.org/2000/svg" width="67" height="50" fill="none"><circle cx="33" cy="25" r="25" fill="#68B738"/><g clip-path="url(#a)"><path fill="#000" d="M60.5591 13.8784a7.60176 7.60176 0 0 1 2.25-2.3c.5-.35.8-.35 1.1.3.4.95.75 1.95.45 3a1.14428 1.14428 0 0 0-.03.5498c.0348.183.1138.3547.23.5002.3.4.55.8.8 1.15.3403.4319.561.9457.64 1.4898a3.136 3.136 0 0 1-.19 1.6102 2.71573 2.71573 0 0 0-.1 1.55c.0999.495.0999 1.005 0 1.5-.0404.3707-.1904.721-.4309 1.006-.2405.285-.5605.4918-.9191.594a2.6056 2.6056 0 0 0-1.6 1 .52507.52507 0 0 1-.1922.184.5249.5249 0 0 1-.2578.066c-.6.1-2.1-1.25-2.1-1.85v-.3c.05-1.8-.05-1.95-1.7-2.7a2.19517 2.19517 0 0 1-.9-.6c-.3-.4-.7-.35-1.15-.2-.45.15-.7.45-.65.95.1508 1.2105.201 2.4313.15 3.65a.94007.94007 0 0 0 .1.4c1.55 2.25 2.15 4.9 2.9 7.45.6 1.95 1.7 3 3.7 3.15.3201.0256.6377.0757.95.15.4109.066.7926.2538 1.0957.539.303.2853.5135.6549.6043 1.061.35 1.05.15 1.3-.9 1.3h-3.25a1.62006 1.62006 0 0 1-1.15-.4 5.85626 5.85626 0 0 0-1.7-1 3.62958 3.62958 0 0 1-1.7-1.3 14.30746 14.30746 0 0 0-2-2.25c-1.4-1.45-2.9-2.85-4.2-4.35a5.69007 5.69007 0 0 1-1.6-3.8c0-.45-.1-.65-.6-.45a.96462.96462 0 0 1-.5.15c-1.4 0-2.1.85-2.6 2.1-.45 1.05-1.05 2.05-1.6 3.1a5.1948 5.1948 0 0 0-.5 2.1c0 1.2.3 1.6 1.4 2 .7.25 1.35.5 1.7 1.2.4.8.3 1-.55 1.05h-3.4a.9399.9399 0 0 1-.95-.55l-.9-1.5a3.02467 3.02467 0 0 1-.4959-1.3084 3.02517 3.02517 0 0 1 .1459-1.3916 5.92957 5.92957 0 0 0 .05-2.65 4.21041 4.21041 0 0 1 .0318-1.8455 4.2112 4.2112 0 0 1 .8182-1.6545c.3-.35.3-.5-.2-.6a25.03084 25.03084 0 0 1-5.9-2.05.0497.0497 0 0 1-.0353-.0146.05003.05003 0 0 1-.0147-.0354c-1.6-.6-1.9-.5-2.35 1.15-.4 1.4-.8 2.8-1.1 4.25-.35 1.6.05 3.1.55 4.6.2.6.8.55 1.25.7 1 .3 1.85.7 2.25 1.75.35.8.3.9-.55.9-.85 0-1.7-.05-2.6 0a3.3199 3.3199 0 0 1-2.1-.7c-2.4-1.6-3.1-4.05-3.3-6.7-.1-1.65-1-2.95-2.05-4.2-.2-.25-.4-.35-.7-.15a22.15608 22.15608 0 0 1-3.35 1.5 13.3554 13.3554 0 0 0-6.1 4.4 5.31513 5.31513 0 0 0-1.1 2.55c-.15.9.1 1.3 1 1.55s1.35.75 1.45 1.7c.05.4-.1.6-.5.6h-4.05a.8241.8241 0 0 1-.374-.1203.82424.82424 0 0 1-.276-.2797 4.27976 4.27976 0 0 1-.94998-2.75 25.301 25.301 0 0 1 .44998-5.15 3.1519 3.1519 0 0 1 .5527-1.4106 3.1513 3.1513 0 0 1 1.1473-.9894c2.95-1.4 4.5-4.05 5.9-6.8.3-.55.05-.65-.45-.6a8.23625 8.23625 0 0 0-3.85 1.6 35.31482 35.31482 0 0 0-4.14998 3.55 8.33471 8.33471 0 0 1-5.15001 2.45c-3.65.2-5.35-1.85-5.2-5.15a4.84503 4.84503 0 0 1 1.2-3.05 2.12508 2.12508 0 0 1 1.01064-.7181 2.12488 2.12488 0 0 1 1.23937-.0319c.75.2.94999.6.64999 1.35-.15.3-.35.55-.5.85a3.7513 3.7513 0 0 0-.5 1c-.55 1.5.2 2.55 1.75 2.7 1.65.15 3.00001-.55 4.25001-1.55a22.4666 22.4666 0 0 0 3.99998-4.15 10.39555 10.39555 0 0 1 3.1804-2.7709 10.39554 10.39554 0 0 1 4.0196-1.2791c1.15-.15 2.15-.65 3.25-.95a20.75581 20.75581 0 0 1 6.35-.9 6.49958 6.49958 0 0 0 2.9-.55c2.45-1 5-1 7.55-.5 2 .4 4 .9 5.95 1.4a8.28806 8.28806 0 0 0 3.5-.1 33.90011 33.90011 0 0 1 6.7-1 9.081 9.081 0 0 1 4.3.85c1 .45 1 .45.75 1.4Z"/></g><defs><clipPath id="a"><path fill="#fff" d="M0 11h67v28H0z"/></clipPath></defs></svg>