<svg xmlns="http://www.w3.org/2000/svg" width="100" height="106" fill="none"><circle cx="50" cy="56" r="50" fill="#68B738"/><g clip-path="url(#a)"><path fill="#000" d="M69.84 0h-.38c-.642.362938-1.153.919413-1.46 1.59-.5623 1.08211-.9953 2.22665-1.29 3.41-.0632.35582-.2429.68054-.5108.92311-.2679.24256-.6089.38921-.9692.41689-1.1021.18999-2.1463.62931-3.0527 1.28443-.9064.65512-1.6511 1.5087-2.1773 2.49557-.7234 1.2813-1.3421 2.619-1.85 4-1.42 3.68-2.51 7.48-3.85 11.19C53.67 27 53.64 27 51.74 27c-2.27 0-2.11-.35-2.14 2.15 0 .79.24 1.19 1.08 1.15.26 0 .65-.13.75.21.1.34-.24.49-.44.69-1.1857 1.2036-2.6863 2.0492-4.33 2.44-1.9.51-3.84.91-5.69 1.53-4.75 1.59-9.14 3.81-12.56 7.57-1.9997 2.3354-3.6012 4.9842-4.74 7.84-3.67 8.64-5.45 17.74-6.83 26.93-.65 4.31-1.11 8.64-1.46 13C15.2 92.65 15 94.82 15 97h33.33c.0553-.4401-.0249-.8867-.23-1.28-.3206-.7979-.8414-1.4996-1.5123-2.0373-.671-.5378-1.4692-.8935-2.3177-1.0327-.7-.16-.78-.37-.35-.92.7014-.9361 1.239-1.9842 1.59-3.1 1.63-4.81 2.26-9.83 3.05-14.8.4463-3.7962 1.6139-7.4721 3.44-10.83 1.4244-2.4716 3.3243-4.6366 5.59-6.37.83-.63.86-.63 1 .44.1.71.12 1.44.17 2.16.3001 4.7244.2399 9.4648-.18 14.18-.3776 3.6549-.4278 7.3362-.15 11 .3975 4.2536 1.1569 8.4655 2.27 12.59H74c-.1736-1.0825-.672-2.0868-1.4292-2.8797-.7572-.7929-1.7374-1.337-2.8108-1.5603-1.2534-.1992-2.5348-.131-3.76.2-.6.14-.85 0-.9-.65-.4137-5.2941-.0771-10.6201 1-15.82 1.3338-6.003 2.3552-12.0711 3.06-18.18.2624-2.467 1.0392-4.8516 2.28-7 1.19-2.12 2.23-4.32 3.4-6.45.4645-.7745.7441-1.6457.817-2.5459.0728-.9002-.063-1.805-.397-2.6441-.27-.71-.53-1.43-.86-2.11-1-1.95-2-3.88-2.92-5.85-.49-1-.38-1.12.71-1.15 1.63 0 1.63 0 1.66-1.64v-.66c0-.69-.26-1.07-1-1h-1.52c-.69 0-.89-.29-.72-1 .3373-1.1542 1.001-2.1863 1.9111-2.9723.9101-.7859 2.0279-1.2921 3.2189-1.4577 2.2157-.1921 4.4478-.0471 6.62.43.2507.079.5223.0561.7562-.0637.234-.1197.4113-.3268.4938-.5763.4-1 .84-2 1.29-3 .102-.1774.1471-.3819.1292-.5857-.0179-.2039-.0979-.3973-.2292-.5543C81.6 13.22 78.13 9.43 73.4 7c-.2285-.09837-.4288-.2524-.5825-.44804-.1537-.19563-.256-.42665-.2975-.67196-.2677-1.42949-.6936-2.82475-1.27-4.16-.2705-.71139-.7655-1.315218-1.41-1.72Z"/></g><defs><clipPath id="a"><path fill="#fff" d="M15 0h70v97H15z"/></clipPath></defs></svg>