<svg xmlns="http://www.w3.org/2000/svg" width="50" height="53" fill="none"><circle cx="25" cy="28" r="25" fill="#68B738"/><g clip-path="url(#a)"><path fill="#000" d="M35.2034 0h-.1954c-.3302.187081-.593.473924-.7509.819588a8.027828 8.027828 0 0 0-.6634 1.757732c-.0325.18341-.1249.35079-.2627.47583-.1378.12503-.3131.20062-.4984.21489-.5668.09793-1.1038.32439-1.57.66208-.4661.33769-.8491.77768-1.1197 1.28637a14.086712 14.086712 0 0 0-.9515 2.06186c-.7303 1.89691-1.2908 3.85565-1.98 5.76805-.324.8711-.3394.8711-1.3165.8711-1.1675 0-1.0852-.1804-1.1006 1.1083 0 .4072.1234.6134.5554.5928.1337 0 .3343-.0671.3857.1082.0515.1753-.1234.2526-.2263.3557-.6097.6204-1.3815 1.0563-2.2268 1.2577-.9772.2629-1.9749.4691-2.9263.7887-2.4429.8196-4.7006 1.9639-6.4594 3.902-1.0285 1.2038-1.8521 2.5692-2.4377 4.0413-1.88747 4.4536-2.8029 9.1443-3.51261 13.8814-.33429 2.2217-.57086 4.4536-.75086 6.701C7.10286 47.7577 7 48.8763 7 50h17.1411c.0285-.2269-.0128-.4571-.1182-.6598-.1649-.4113-.4328-.773-.7778-1.0502-.3451-.2772-.7556-.4605-1.192-.5323-.36-.0824-.4011-.1907-.18-.4742.3607-.4825.6372-1.0228.8178-1.5979.8382-2.4794 1.1622-5.067 1.5685-7.6289.2295-1.9568.83-3.8516 1.7692-5.5825.7325-1.274 1.7096-2.39 2.8748-3.2835.4269-.3247.4423-.3247.5143.2268.0514.366.0617.7423.0874 1.1134.1544 2.4353.1234 4.8788-.0925 7.3093-.1942 1.884-.22 3.7815-.0772 5.6701.2045 2.1926.595 4.3636 1.1675 6.4897h6.84c-.0893-.558-.3456-1.0757-.7351-1.4844-.3894-.4087-.8935-.6892-1.4455-.8043-.6446-.1026-1.3036-.0675-1.9337.1031-.3086.0722-.4372 0-.4629-.335-.2128-2.7289-.0396-5.4743.5143-8.1547.686-3.0943 1.2112-6.2222 1.5737-9.3711.135-1.2717.5344-2.5008 1.1726-3.6082.612-1.0928 1.1468-2.2268 1.7486-3.3248.2389-.3992.3826-.8483.4201-1.3123.0375-.464-.0324-.9304-.2041-1.3629-.1389-.366-.2726-.7372-.4423-1.0877-.5143-1.0051-1.0286-2-1.5017-3.0154-.252-.5155-.1955-.5774.3651-.5928.8383 0 .8383 0 .8537-.8454v-.3402c0-.3557-.1337-.5515-.5143-.5154h-.7817c-.3548 0-.4577-.1495-.3703-.5155.1735-.595.5148-1.127.9829-1.5321.468-.4051 1.0429-.666 1.6554-.7514 1.1395-.099 2.2874-.0243 3.4046.2216.1289.0407.2686.029.3889-.0328.1203-.0617.2115-.1684.2539-.2971.2058-.5154.432-1.0309.6635-1.54636a.51671.51671 0 0 0 .0664-.30191c-.0092-.10508-.0503-.20481-.1179-.28571-1.6457-2.09279-3.4302-4.0464-5.8628-5.29897-.1175-.05071-.2205-.13011-.2996-.23095-.079-.10084-.1316-.21992-.153-.34637-.1377-.73685-.3567-1.45606-.6531-2.144332C35.7895.519904 35.5349.20865 35.2034 0Z"/></g><defs><clipPath id="a"><path fill="#fff" d="M7 0h36v50H7z"/></clipPath></defs></svg>
