<svg xmlns="http://www.w3.org/2000/svg" width="134" height="100" fill="none"><circle cx="69" cy="50" r="50" fill="#68B738"/><g clip-path="url(#a)"><path fill="#000" d="M123.118 25.7569c1.155-1.837 2.689-3.4054 4.5-4.6 1-.7 1.6-.7 2.2.6.8 1.9 1.5 3.9.9 6-.109.3561-.13.7335-.06 1.0995.07.3659.228.7094.46 1.0005.6.8 1.1 1.6 1.6 2.3.681.8637 1.122 1.8913 1.28 2.9795.158 1.0882.027 2.1988-.38 3.2205-.367.9918-.436 2.0692-.2 3.1.2.99.2 2.0099 0 3-.081.7414-.381 1.4418-.862 2.0119-.481.57-1.121.9836-1.838 1.1881-1.279.2433-2.42.9568-3.2 2-.094.1536-.227.2803-.384.3678-.158.0876-.335.1331-.516.1322-1.2.2-4.2-2.5-4.2-3.7v-.6c.1-3.6-.1-3.9-3.4-5.4-.69-.2436-1.309-.6562-1.8-1.2-.6-.8-1.4-.7-2.3-.4-.9.3-1.4.9-1.3 1.9.302 2.4208.402 4.8625.3 7.3.007.2781.075.5514.2.8 3.1 4.5 4.3 9.8 5.8 14.9 1.2 3.9 3.4 6 7.4 6.3.64.051 1.276.1513 1.9.3.822.132 1.585.5075 2.192 1.078.606.5705 1.027 1.3096 1.208 2.122.7 2.1.3 2.6-1.8 2.6h-6.5c-.841.0425-1.666-.2445-2.3-.8-1.012-.8542-2.162-1.5304-3.4-2-1.369-.5053-2.553-1.4114-3.4-2.6-1.171-1.6366-2.512-3.1449-4-4.5-2.8-2.9-5.8-5.7-8.4-8.7-1.979-2.0442-3.1207-4.7557-3.1998-7.6 0-.9-.2-1.3-1.2-.9-.2994.1899-.6454.2937-1 .3-2.8 0-4.2 1.7-5.2 4.2-.9 2.1-2.1 4.1-3.2 6.2-.6237 1.3145-.9644 2.7454-1 4.2 0 2.4.6 3.2 2.8 4 1.4.5 2.7 1 3.4 2.4.8 1.6.6 2-1.1 2.1h-6.8c-.392.0388-.7863-.0465-1.1272-.2439-.3409-.1974-.6112-.4968-.7728-.8561l-1.8-3c-.5306-.7828-.8703-1.679-.9918-2.6168-.1216-.9378-.0216-1.8911.2918-2.7832.4328-1.7365.467-3.5485.1-5.3-.252-1.2199-.2303-2.4805.0637-3.691.2939-1.2105.8528-2.3407 1.6363-3.309.6-.7.6-1-.4-1.2-4.0891-.8687-8.0533-2.2461-11.8-4.1-.0265 0-.0519-.0106-.0707-.0293-.0187-.0188-.0293-.0442-.0293-.0707-3.2-1.2-3.8-1-4.7 2.3-.8 2.8-1.6 5.6-2.2 8.5-.7 3.2.1 6.2 1.1 9.2.4 1.2 1.6 1.1 2.5 1.4 2 .6 3.7 1.4 4.5 3.5.7 1.6.6 1.8-1.1 1.8-1.7 0-3.4-.1-5.2 0-1.5189.0275-3.0013-.4667-4.2-1.4-4.8-3.2-6.2-8.1-6.6-13.4-.2-3.3-2-5.9-4.1-8.4-.4-.5-.8-.7-1.4-.3-2.1465 1.1835-4.3875 2.187-6.7 3-4.8257 1.7039-9.0603 4.7584-12.2 8.8-1.1723 1.4749-1.9316 3.235-2.2 5.1-.3 1.8.2 2.6 2 3.1s2.7 1.5 2.9 3.4c.1.8-.2 1.2-1 1.2h-8.1c-.2651-.0188-.5217-.1014-.748-.2407-.2264-.1393-.4157-.3312-.552-.5593-1.2561-1.5553-1.9283-3.5011-1.9-5.5-.0524-3.4551.2491-6.9064.9-10.3.1335-1.0164.5129-1.9848 1.1054-2.8212.5925-.8365 1.3802-1.5157 2.2946-1.9788 5.9-2.8 9-8.1 11.8-13.6.6-1.1.1-1.3-.9-1.2-2.7986.3885-5.4503 1.4905-7.7 3.2-2.9458 2.1488-5.7207 4.5226-8.3 7.1-2.7503 2.7936-6.3973 4.5286-10.3 4.9-7.29997.4-10.69997-3.7-10.3999701-10.3.0670625-2.2504.9156471-4.4073 2.4000001-6.1.51602-.669 1.21973-1.1691 2.02127-1.4362.80153-.2672 1.66451-.2894 2.47873-.0638 1.5.4 1.9 1.2 1.3 2.7-.3.6-.7 1.1-1 1.7-.4314.6129-.76848 1.2871-1 2-1.1 3 .4 5.1 3.5 5.4 3.29997.3 5.99997-1.1 8.49997-3.1 3.012-2.4118 5.7007-5.2014 8-8.3 1.7193-2.2626 3.8841-4.1488 6.3609-5.5419 2.4767-1.3932 5.2127-2.2638 8.0391-2.5581 2.3-.3 4.3-1.3 6.5-1.9 4.1145-1.2544 8.399-1.8617 12.7-1.8 1.9921.0829 3.9766-.2935 5.8-1.1 4.9-2 10-2 15.1-1 4 .8 8 1.8 11.9 2.8 2.321.4324 4.7075.3642 7-.2 4.3888-1.1125 8.8778-1.7825 13.3998-2 2.963-.1442 5.915.4395 8.6 1.7 2 .9 2 .9 1.5 2.8Z"/></g><defs><clipPath id="a"><path fill="#fff" d="M0 20h134v56H0z"/></clipPath></defs></svg>