<svg xmlns="http://www.w3.org/2000/svg" width="268" height="200" fill="none"><circle cx="134" cy="100" r="100" fill="#68B738"/><g clip-path="url(#a)"><path fill="#000" d="M246.236 55.5137c2.309-3.6738 5.378-6.8108 9-9.2 2-1.4 3.2-1.4 4.4 1.2 1.6 3.8 3 7.8 1.8 12-.218.7123-.259 1.4672-.12 2.1991.14.7319.456 1.4187.92 2.0009 1.2 1.6 2.2 3.2 3.2 4.6 1.361 1.7275 2.244 3.7826 2.56 5.9591.316 2.1764.054 4.3977-.76 6.4409-.734 1.9836-.873 4.1385-.4 6.2.4 1.98.4 4.02 0 6-.161 1.4828-.761 2.8838-1.723 4.0238-.962 1.14-2.242 1.9673-3.677 2.3762-2.558.4868-4.841 1.9133-6.4 4.0003-.188.307-.453.56-.769.735-.315.176-.67.267-1.031.265-2.4.4-8.4-5.0003-8.4-7.4003v-1.2c.2-7.2-.2-7.8-6.8-10.8-1.381-.4872-2.619-1.3122-3.6-2.4-1.2-1.6-2.8-1.4-4.6-.8-1.8.6-2.8 1.8-2.6 3.8.604 4.8417.804 9.7251.6 14.6003.014.556.15 1.103.4 1.6 6.2 9 8.6 19.6 11.6 29.8 2.4 7.8 6.8 12 14.8 12.6 1.281.102 2.551.302 3.8.6 1.644.264 3.171 1.015 4.383 2.156 1.212 1.141 2.054 2.619 2.417 4.244 1.4 4.2.6 5.2-3.6 5.2h-13c-1.683.085-3.333-.489-4.6-1.6-2.024-1.709-4.323-3.061-6.8-4-2.737-1.011-5.107-2.823-6.8-5.2-2.342-3.273-5.024-6.29-8-9-5.6-5.8-11.6-11.4-16.8-17.4-3.958-4.089-6.241-9.512-6.4-15.2 0-1.8-.4-2.6-2.4-1.8-.598.38-1.29.587-2 .6-5.6 0-8.4 3.4-10.4 8.4-1.8 4.2-4.2 8.2-6.4 12.4-1.247 2.629-1.928 5.491-2 8.4 0 4.8 1.2 6.4 5.6 8 2.8 1 5.4 2 6.8 4.8 1.6 3.2 1.2 4-2.2 4.2h-13.6c-.784.077-1.572-.093-2.254-.488-.682-.395-1.222-.994-1.546-1.712l-3.6-6c-1.061-1.566-1.74-3.358-1.983-5.234-.243-1.875-.043-3.782.583-5.566.866-3.473.934-7.097.2-10.6-.504-2.44-.46-4.961.128-7.382.588-2.421 1.705-4.682 3.272-6.618 1.2-1.4 1.2-2-.8-2.4-8.178-1.738-16.106-4.4923-23.6-8.2003-.053 0-.103-.0211-.141-.0586-.037-.0375-.059-.0884-.059-.1414-6.4-2.4-7.6-2-9.4 4.6-1.6 5.6003-3.2 11.2003-4.4 17.0003-1.4 6.4.2 12.4 2.2 18.4.8 2.4 3.2 2.2 5 2.8 4 1.2 7.4 2.8 9 7 1.4 3.2 1.2 3.6-2.2 3.6-3.4 0-6.8-.2-10.4 0-3.037.055-6.002-.934-8.4-2.8-9.6-6.4-12.4-16.2-13.2-26.8-.4-6.6-4-11.8-8.2-16.8-.8-1-1.6-1.4-2.8-.6-4.2926 2.367-8.7746 4.374-13.3995 6-9.6515 3.408-18.1208 9.517-24.4 17.6-2.3447 2.95-3.8633 6.47-4.4 10.2-.6 3.6.4 5.2 4 6.2s5.4 3 5.8 6.8c.2 1.6-.4 2.4-2 2.4h-16.2c-.5302-.038-1.0435-.203-1.4962-.482-.4527-.278-.8314-.662-1.1038-1.118-2.5123-3.111-3.8567-7.002-3.8-11-.105-6.91.4981-13.813 1.8-20.6.2669-2.033 1.0258-3.97 2.2108-5.643 1.185-1.673 2.7602-3.031 4.5892-3.957 11.8-5.6 18-16.2003 23.6-27.2003 1.2-2.2.2-2.6-1.8-2.4-5.5974.7771-10.9007 2.981-15.4 6.4-5.8917 4.2977-11.4416 9.0452-16.6 14.2-5.5007 5.5873-12.7947 9.0573-20.6 9.8003-14.60004.8-21.40004-7.4-20.8000401-20.6003.1341251-4.5008 1.8312901-8.8144 4.8000001-12.2 1.03204-1.338 2.43947-2.338 4.04253-2.8724 1.60311-.5343 3.32901-.5788 4.95751-.1276 3 .8 3.8 2.4 2.6 5.4-.6 1.2-1.4 2.2-2 3.4-.8628 1.2259-1.537 2.5742-2 4-2.2 6 .8 10.2 7 10.8 6.6.6 12-2.2 17-6.2 6.0238-4.8235 11.4014-10.4027 16-16.6 3.4385-4.5252 7.7681-8.2974 12.7216-11.0837 4.9535-2.7864 10.4256-4.5276 16.0784-5.1163 4.6-.6 8.6-2.6 13-3.8 8.2285-2.5088 16.7975-3.7233 25.3995-3.6 3.985.1659 7.954-.5868 11.6-2.2 9.8-4 20-4 30.2-2 8 1.6 16 3.6 23.8 5.6 4.642.865 9.415.7286 14-.4 8.778-2.2249 17.756-3.5649 26.8-4 5.925-.2883 11.831.8791 17.2 3.4 4 1.8 4 1.8 3 5.6Z"/></g><defs><clipPath id="a"><path fill="#fff" d="M0 44h268v112H0z"/></clipPath></defs></svg>