<svg xmlns="http://www.w3.org/2000/svg" width="111" height="14" fill="none"><path fill="#444" fill-rule="evenodd" d="M79.86 11.19V-.6h-1.43v4.49c-.27-.3-.59-.53-.95-.69-.35-.18-.77-.26-1.27-.26-.54 0-1.03.11-1.47.33-.43.21-.8.51-1.1.89-.3.37-.53.82-.69 1.34-.16.51-.24 1.07-.24 1.66q0 1.01.22 1.79c.14.51.35.95.62 1.29.26.35.59.61.96.8.38.17.8.26 1.27.26q.83 0 1.47-.35.03-.02.06-.03c.45-.26.84-.6 1.19-1.01l.13.98c.05.2.18.3.38.3h.85Zm-71.11 0V-.28H7.2v5.12H1.01V-.28H-.54v11.47h1.55V5.97H7.2v5.22h1.55Zm6.97-10.16h3.71V-.28h-8.98v1.31h3.72v10.16h1.55V1.03Zm17.34 10.16V-.28h-1.15q-.2 0-.32.04c-.08.03-.15.1-.21.23l-3.89 7.05c-.07.12-.13.26-.19.4s-.12.28-.17.43c-.05-.15-.11-.29-.18-.43-.05-.14-.12-.27-.18-.4L22.81-.01c-.07-.13-.14-.2-.22-.23q-.11-.04-.32-.04h-1.14v11.47h1.36V2.76c0-.24-.02-.5-.05-.78l4.02 7.2c.12.24.31.36.56.36h.22c.25 0 .44-.12.56-.36l3.94-7.17q-.02.2-.03.39-.01.2-.01.36v8.43h1.36Zm9.43 0V9.88h-4.96V-.28h-1.54v11.47h6.5Zm12.92 0h1.2L52.02-.28h-1.56l-4.59 11.47h1.2q.16 0 .27-.07.04-.02.07-.04c.09-.08.15-.16.18-.26l1.07-2.77h5.15l1.07 2.77c.04.11.11.19.19.26.09.07.2.11.34.11Zm-3.83-8.92 1.8 4.66H49.1l1.8-4.65c.11-.29.23-.65.34-1.08q.08.31.17.59c.06.18.11.34.17.48Zm14.86.99c-.52.21-1 .54-1.45.97l.26.45c.05.08.11.14.18.2.06.04.15.07.24.07.13 0 .25-.05.37-.13.13-.09.28-.19.45-.3.18-.11.38-.21.62-.29.24-.09.53-.14.88-.14.53 0 .92.16 1.2.49q.4.48.4 1.42v.64c-.92.02-1.7.1-2.33.25-.64.15-1.15.33-1.55.56-.39.23-.68.49-.85.79-.18.3-.27.6-.27.92 0 .37.06.69.18.96q.18.4.48.66l.01.01c.21.17.45.31.73.4.27.08.57.13.88.13q.47 0 .84-.09c.26-.06.5-.13.72-.23.23-.11.44-.24.64-.39.21-.15.41-.33.63-.53l.16.77c.04.13.1.23.17.27.08.05.18.07.32.07h.64V6c0-.45-.07-.87-.19-1.24-.12-.38-.3-.71-.54-.97-.24-.27-.54-.48-.89-.63-.35-.15-.76-.22-1.21-.22q-.94 0-1.72.32Zm-3.37 1.4c.05-.03.09-.08.13-.14l.38-.51c-.34-.33-.73-.59-1.16-.77-.44-.19-.94-.28-1.51-.28-.61 0-1.15.1-1.63.31-.47.21-.87.5-1.19.87-.32.37-.57.81-.74 1.32-.16.51-.25 1.07-.25 1.67 0 .66.1 1.25.28 1.77.18.52.43.95.75 1.31.32.35.69.62 1.13.81.43.19.91.28 1.41.28.3 0 .58-.02.87-.07.28-.05.55-.13.8-.23.27-.1.51-.23.73-.39.23-.15.43-.34.6-.56l-.4-.52c-.06-.09-.15-.14-.27-.14-.1 0-.19.05-.3.13-.09.08-.21.17-.36.28-.15.1-.33.19-.56.28-.22.08-.5.12-.85.12-.36 0-.69-.07-.99-.2-.28-.14-.53-.34-.74-.6-.2-.26-.36-.58-.47-.96-.11-.38-.17-.82-.17-1.31q0-.7.15-1.27c.11-.38.26-.7.47-.97.2-.27.46-.47.76-.61.31-.14.66-.21 1.06-.21.3 0 .55.03.75.1.21.06.38.14.52.22.15.08.27.15.36.22.1.06.19.1.27.1.07 0 .13-.02.17-.05Zm24.98 5.95c.25-.16.46-.35.63-.56l-.4-.52c-.06-.09-.15-.14-.27-.14-.09 0-.2.05-.33.13-.12.08-.27.17-.46.27-.19.09-.41.18-.67.27-.26.08-.57.12-.92.12-.39 0-.73-.06-1.04-.18-.31-.13-.58-.32-.8-.57-.23-.26-.4-.58-.53-.96-.12-.37-.19-.82-.21-1.33h5.42q.17 0 .25-.09l.02-.02c.05-.08.07-.23.07-.45 0-.58-.08-1.09-.25-1.54-.18-.45-.41-.83-.72-1.13-.3-.31-.65-.55-1.07-.71-.41-.16-.86-.24-1.34-.24q-.88 0-1.59.31c-.47.2-.86.48-1.19.85-.32.35-.57.78-.75 1.27-.17.49-.26 1.02-.26 1.58 0 .7.1 1.32.29 1.86.19.54.46.99.8 1.36.35.36.76.64 1.23.83.47.19.99.28 1.55.28.29 0 .59-.03.89-.08.29-.05.58-.12.86-.22.28-.11.55-.23.79-.39Zm2.51-7.53v8.11h1.43V5.15c.25-.33.53-.58.83-.77.3-.19.62-.29.97-.29q.57 0 .93.27.12.09.22.21c.26.32.39.81.39 1.46v5.16h1.43V6.03c0-.32.05-.6.14-.84.09-.25.22-.45.38-.61.16-.16.34-.28.55-.36.22-.09.44-.13.67-.13q.6 0 .98.28.12.1.22.22c.28.32.42.8.42 1.44v5.16h1.43V6.03q0-.74-.18-1.31c-.12-.38-.3-.7-.54-.96-.23-.27-.51-.46-.85-.6-.33-.14-.7-.2-1.13-.2-.27 0-.53.03-.79.09-.26.07-.5.17-.73.31-.23.13-.44.31-.63.52-.18.22-.33.47-.44.76-.15-.51-.4-.92-.74-1.23-.34-.3-.78-.45-1.32-.45q-.61 0-1.11.24-.09.05-.19.11c-.37.23-.7.53-1 .9l-.11-.83c-.05-.2-.17-.3-.37-.3h-.86Zm15.43 10.5 4.52-10.5h-1.13c-.1 0-.19.03-.27.09-.07.05-.12.12-.16.21l-2.1 5.09c-.09.23-.17.47-.24.72-.06-.25-.13-.48-.22-.71l-2.16-5.1c-.03-.08-.08-.14-.16-.2-.07-.06-.16-.1-.28-.1h-1.24l3.35 7.64-1.48 3.21h1.05c.15 0 .26-.03.33-.09.08-.07.14-.15.19-.26Zm-18.6-8.23c.09.27.14.57.14.9H83.1c.1-.7.34-1.25.74-1.65.4-.4.94-.6 1.62-.6q.49 0 .87.17c.26.11.47.26.65.47.18.19.32.43.41.71Zm-9.82-1.08c.31.14.6.38.86.74v3.91c-.29.39-.61.69-.96.91-.35.21-.76.32-1.23.32-.32 0-.61-.06-.87-.17-.26-.11-.47-.29-.65-.53-.17-.24-.31-.55-.4-.93-.09-.38-.13-.83-.13-1.36 0-.99.2-1.76.6-2.3q.23-.3.52-.48.5-.33 1.22-.33c.38 0 .73.07 1.04.22ZM67.91 7.7c.47-.09 1.03-.14 1.68-.16v1.68c-.16.17-.32.32-.49.46-.17.13-.34.24-.53.34-.18.1-.38.17-.58.22-.21.05-.44.08-.69.08-.19 0-.37-.03-.53-.07-.16-.05-.3-.12-.42-.21-.12-.11-.22-.23-.28-.39-.07-.15-.11-.34-.11-.55 0-.22.07-.43.19-.61.14-.18.35-.34.64-.47q.44-.2 1.12-.32Z"/></svg>