<svg xmlns="http://www.w3.org/2000/svg" xmlns:xlink="http://www.w3.org/1999/xlink"><symbol id="html-academy-text"><g fill="none"><path fill="#444" fill-rule="evenodd" d="M79.86 11.19V-.6h-1.43v4.49c-.27-.3-.59-.53-.95-.69-.35-.18-.77-.26-1.27-.26-.54 0-1.03.11-1.47.33-.43.21-.8.51-1.1.89-.3.37-.53.82-.69 1.34a5.55 5.55 0 00-.24 1.66q0 1.01.22 1.79c.14.51.35.95.62 1.29.26.35.59.61.96.8.38.17.8.26 1.27.26q.83 0 1.47-.35.03-.02.06-.03c.45-.26.84-.6 1.19-1.01l.13.98c.05.2.18.3.38.3h.85zm-71.11 0V-.28H7.2v5.12H1.01V-.28H-.54v11.47h1.55V5.97H7.2v5.22h1.55zm6.97-10.16h3.71V-.28h-8.98v1.31h3.72v10.16h1.55V1.03zm17.34 10.16V-.28h-1.15q-.2 0-.32.04c-.08.03-.15.1-.21.23l-3.89 7.05c-.07.12-.13.26-.19.4s-.12.28-.17.43a3.25 3.25 0 00-.18-.43c-.05-.14-.12-.27-.18-.4L22.81-.01c-.07-.13-.14-.2-.22-.23q-.11-.04-.32-.04h-1.14v11.47h1.36V2.76c0-.24-.02-.5-.05-.78l4.02 7.2c.12.24.31.36.56.36h.22c.25 0 .44-.12.56-.36l3.94-7.17q-.02.2-.03.39-.01.2-.01.36v8.43h1.36zm9.43 0V9.88h-4.96V-.28h-1.54v11.47h6.5zm12.92 0h1.2L52.02-.28h-1.56l-4.59 11.47h1.2q.16 0 .27-.07.04-.02.07-.04a.56.56 0 00.18-.26l1.07-2.77h5.15l1.07 2.77c.04.11.11.19.19.26.09.07.2.11.34.11zm-3.83-8.92l1.8 4.66H49.1l1.8-4.65c.11-.29.23-.65.34-1.08q.08.31.17.59c.06.18.11.34.17.48zm14.86.99c-.52.21-1 .54-1.45.97l.26.45c.05.08.11.14.18.2.06.04.15.07.24.07.13 0 .25-.05.37-.13.13-.09.28-.19.45-.3.18-.11.38-.21.62-.29.24-.09.53-.14.88-.14.53 0 .92.16 1.2.49q.4.48.4 1.42v.64c-.92.02-1.7.1-2.33.25-.64.15-1.15.33-1.55.56-.39.23-.68.49-.85.79-.18.3-.27.6-.27.92 0 .37.06.69.18.96q.18.4.48.66l.01.01c.21.17.45.31.73.4.27.08.57.13.88.13q.47 0 .84-.09c.26-.06.5-.13.72-.23.23-.11.44-.24.64-.39.21-.15.41-.33.63-.53l.16.77c.04.13.1.23.17.27.08.05.18.07.32.07h.64V6c0-.45-.07-.87-.19-1.24-.12-.38-.3-.71-.54-.97-.24-.27-.54-.48-.89-.63-.35-.15-.76-.22-1.21-.22q-.94 0-1.72.32zm-3.37 1.4c.05-.03.09-.08.13-.14l.38-.51a3.73 3.73 0 00-1.16-.77c-.44-.19-.94-.28-1.51-.28-.61 0-1.15.1-1.63.31-.47.21-.87.5-1.19.87-.32.37-.57.81-.74 1.32-.16.51-.25 1.07-.25 1.67 0 .66.1 1.25.28 1.77.18.52.43.95.75 1.31.32.35.69.62 1.13.81.43.19.91.28 1.41.28.3 0 .58-.02.87-.07.28-.05.55-.13.8-.23a3 3 0 00.73-.39c.23-.15.43-.34.6-.56l-.4-.52a.307.307 0 00-.27-.14c-.1 0-.19.05-.3.13-.09.08-.21.17-.36.28-.15.1-.33.19-.56.28-.22.08-.5.12-.85.12-.36 0-.69-.07-.99-.2-.28-.14-.53-.34-.74-.6-.2-.26-.36-.58-.47-.96a4.73 4.73 0 01-.17-1.31q0-.7.15-1.27c.11-.38.26-.7.47-.97.2-.27.46-.47.76-.61.31-.14.66-.21 1.06-.21.3 0 .55.03.75.1.21.06.38.14.52.22.15.08.27.15.36.22.1.06.19.1.27.1.07 0 .13-.02.17-.05zm24.98 5.95c.25-.16.46-.35.63-.56l-.4-.52a.307.307 0 00-.27-.14c-.09 0-.2.05-.33.13-.12.08-.27.17-.46.27-.19.09-.41.18-.67.27-.26.08-.57.12-.92.12-.39 0-.73-.06-1.04-.18-.31-.13-.58-.32-.8-.57-.23-.26-.4-.58-.53-.96a5.01 5.01 0 01-.21-1.33h5.42q.17 0 .25-.09l.02-.02c.05-.08.07-.23.07-.45 0-.58-.08-1.09-.25-1.54-.18-.45-.41-.83-.72-1.13-.3-.31-.65-.55-1.07-.71-.41-.16-.86-.24-1.34-.24q-.88 0-1.59.31c-.47.2-.86.48-1.19.85-.32.35-.57.78-.75 1.27-.17.49-.26 1.02-.26 1.58 0 .7.1 1.32.29 1.86.19.54.46.99.8 1.36.35.36.76.64 1.23.83.47.19.99.28 1.55.28.29 0 .59-.03.89-.08.29-.05.58-.12.86-.22.28-.11.55-.23.79-.39zm2.51-7.53v8.11h1.43V5.15c.25-.33.53-.58.83-.77.3-.19.62-.29.97-.29q.57 0 .93.27.12.09.22.21c.26.32.39.81.39 1.46v5.16h1.43V6.03c0-.32.05-.6.14-.84.09-.25.22-.45.38-.61.16-.16.34-.28.55-.36.22-.09.44-.13.67-.13q.6 0 .98.28.12.1.22.22c.28.32.42.8.42 1.44v5.16h1.43V6.03q0-.74-.18-1.31c-.12-.38-.3-.7-.54-.96-.23-.27-.51-.46-.85-.6-.33-.14-.7-.2-1.13-.2-.27 0-.53.03-.79.09-.26.07-.5.17-.73.31-.23.13-.44.31-.63.52-.18.22-.33.47-.44.76-.15-.51-.4-.92-.74-1.23-.34-.3-.78-.45-1.32-.45q-.61 0-1.11.24-.09.05-.19.11c-.37.23-.7.53-1 .9l-.11-.83c-.05-.2-.17-.3-.37-.3h-.86zm15.43 10.5l4.52-10.5h-1.13c-.1 0-.19.03-.27.09-.07.05-.12.12-.16.21l-2.1 5.09c-.09.23-.17.47-.24.72-.06-.25-.13-.48-.22-.71l-2.16-5.1a.433.433 0 00-.16-.2.414.414 0 00-.28-.1h-1.24l3.35 7.64-1.48 3.21h1.05c.15 0 .26-.03.33-.09.08-.07.14-.15.19-.26zm-18.6-8.23c.09.27.14.57.14.9H83.1c.1-.7.34-1.25.74-1.65.4-.4.94-.6 1.62-.6q.49 0 .87.17c.26.11.47.26.65.47.18.19.32.43.41.71zm-9.82-1.08c.31.14.6.38.86.74v3.91c-.29.39-.61.69-.96.91-.35.21-.76.32-1.23.32-.32 0-.61-.06-.87-.17-.26-.11-.47-.29-.65-.53-.17-.24-.31-.55-.4-.93-.09-.38-.13-.83-.13-1.36 0-.99.2-1.76.6-2.3q.23-.3.52-.48.5-.33 1.22-.33c.38 0 .73.07 1.04.22zM67.91 7.7c.47-.09 1.03-.14 1.68-.16v1.68c-.16.17-.32.32-.49.46-.17.13-.34.24-.53.34-.18.1-.38.17-.58.22-.21.05-.44.08-.69.08-.19 0-.37-.03-.53-.07-.16-.05-.3-.12-.42-.21a1 1 0 01-.28-.39c-.07-.15-.11-.34-.11-.55 0-.22.07-.43.19-.61.14-.18.35-.34.64-.47q.44-.2 1.12-.32z"/></g></symbol><symbol id="icon-social-academy"><g fill="none"><path d="M14.143.016L14 0 .5 1.407v24.606L14 34l13.5-7.987V1.407L14.143.016zm11.591 25L14 31.956 2.266 25.015V14.93l11.685 6.916.02 1.253-8.017-4.743-.011 1.225 8.046 4.809.02 1.286-8.045-4.758-.01 1.226L14 26.95l8.124-4.833V16.91l3.62-2.15-.01 10.256zm0-11.564l-3.22 1.88-1.482.875-7.065-4.187-.011 1.225 6.04 3.573-.053.031-.13.076-.86.492-4.986-2.948-.011 1.225 3.936 2.328-.933.61-.021.012-2.971-1.742-.011 1.225 1.947 1.135-1.988 1.186-11.618-6.872 11.638-6.958 11.8 6.834zm0-1.225L13.94 5.31 2.266 12.22V2.99L14 1.764 25.734 2.99v9.237z" fill="#666"/></g></symbol><symbol id="icon-social-telegram"><g fill="none"><path fill="#666" fill-rule="evenodd" d="M19.46.15c.17.15.26.38.22.61l-2.62 15.76c-.04.22-.19.4-.39.49-.21.09-.44.07-.63-.06L8.17 11.7a.635.635 0 01-.29-.44.63.63 0 01.14-.51l2.61-3.27-4.36 2.91c-.2.13-.45.15-.66.04L.36 7.8A.627.627 0 010 7.18c.01-.27.18-.49.43-.58L18.81.03c.22-.08.47-.03.65.12zM2.32 7.32l3.54 1.77 7.56-5.05a.67.67 0 01.85.11c.22.24.23.6.02.85l-4.8 6.01 6.44 4.29L18.2 1.65 2.32 7.32z"/></g></symbol><symbol id="icon-social-vk"><g fill="none"><path fill="#666" d="M0 2.33C0 1.48.51 1.02 1.54.95l3.97.03c.27 0 .44.12.53.37.41 1.26.87 2.35 1.38 3.26.5.91 1.16 1.97 1.98 3.16.07.15.19.22.35.22.12 0 .22-.06.29-.17l.08-.28.03-4.35c0-.3-.08-.5-.23-.6-.15-.11-.43-.18-.84-.23-.32-.05-.48-.24-.48-.55 0-.07.01-.12.03-.16C9 .57 10.07.02 11.82.02l1.5-.02c.67 0 1.23.15 1.68.47.44.32.66.82.66 1.51v5.71c.13.08.24.13.35.13.26 0 .49-.15.69-.46 1.95-2.58 3.01-4.31 3.17-5.18 0-.01.02-.06.05-.12.13-.25.33-.47.62-.66.28-.18.53-.31.74-.37a.47.47 0 01.24-.05h4.13l.27.02c.35 0 .63.16.82.48.08.1.12.21.15.33.03.11.05.23.05.35.01.12.02.18.02.2v.17c-.13.69-.44 1.43-.95 2.21-.5.78-1.15 1.62-1.93 2.52-.78.91-1.27 1.5-1.46 1.79-.16.2-.24.38-.24.55 0 .14.07.29.21.45l3.89 4.63c.21.27.32.56.32.88 0 .39-.16.71-.48.96-.32.25-.7.39-1.15.42l-.45.03h-4.05c-.02 0-.05 0-.11.01-.05.01-.09.02-.1.02-.39 0-.76-.16-1.1-.48-.12-.14-.95-1.13-2.5-2.97-.09-.12-.21-.23-.37-.33-.07.27-.17.66-.28 1.16-.12.5-.2.86-.26 1.08l-.08.43c-.17.59-.55.94-1.11 1.05l-.38.03h-2.61c-1.47 0-2.94-.64-4.41-1.91-1.46-1.28-2.78-2.92-3.95-4.94C2.23 8.1 1.14 5.75.13 3.06.04 2.85 0 2.6 0 2.33zm16.01 6.52c-.38 0-.71-.1-1.01-.29-.31-.19-.46-.46-.46-.79V1.98c0-.33-.09-.57-.26-.71-.18-.15-.49-.22-.94-.22l-1.52.05c-.76 0-1.34.13-1.73.38.78.35 1.18.92 1.18 1.71v4.42c-.04.42-.22.77-.54 1.05-.32.28-.67.41-1.06.41-.54 0-.94-.24-1.23-.73-1.38-1.97-2.41-3.85-3.09-5.63l-.24-.65-3.54-.03c-.23 0-.36.01-.39.04-.03.02-.04.1-.04.21 0 .15.02.31.05.48l.56 1.41c1.5 3.64 3.12 6.5 4.87 8.6 1.75 2.1 3.46 3.14 5.15 3.14h2.67c.1 0 .18-.03.24-.08.05-.06.09-.18.13-.34l.05-.26.51-2.21c.14-.3.26-.5.37-.6.2-.19.43-.28.69-.28.43 0 .87.24 1.31.73L20 15.59c.15.21.3.32.46.32h4.39c.54 0 .8-.12.8-.37a.44.44 0 00-.08-.26l-3.86-4.55c-.3-.35-.45-.73-.45-1.13 0-.4.14-.79.42-1.16.23-.33.68-.89 1.35-1.67.66-.78 1.25-1.51 1.74-2.19.5-.67.83-1.29.99-1.84l.08-.33a.323.323 0 01-.03-.16.92.92 0 00-.02-.19H21.6c-.26.1-.48.25-.64.45l-.16.48c-.44 1.15-1.6 2.94-3.49 5.35-.37.34-.81.51-1.3.51z"/></g></symbol><symbol id="icon-social-youtube"><g fill="none"><path fill="#666" d="M15.85 8.79L10.61 5.3a.568.568 0 00-.33-.11.573.573 0 00-.34.08.64.64 0 00-.25.24c-.06.1-.09.21-.1.33v6.98c.01.12.04.24.1.34.06.1.15.19.25.24.11.06.22.08.34.08a.65.65 0 00.33-.11l5.24-3.49c.09-.06.16-.14.21-.24.05-.09.08-.2.08-.31a.659.659 0 00-.29-.54zM10.9 11.6V7.06l3.41 2.27-3.41 2.27zm12.48-8.56c-.09-.37-.27-.71-.52-.99-.26-.29-.57-.51-.93-.65C18.21-.03 12.25 0 12 0c-.26 0-6.22-.03-9.94 1.4-.36.14-.67.36-.93.65-.25.28-.43.62-.52.99C.32 4.11 0 6.07 0 9.33c0 3.27.32 5.23.61 6.3.09.37.27.71.52.99.26.29.57.51.93.64 3.72 1.43 9.68 1.41 9.94 1.41h.07c.75 0 6.32-.04 9.86-1.41.36-.13.67-.35.93-.64.25-.28.43-.62.52-.99.29-1.07.62-3.03.62-6.3 0-3.26-.33-5.22-.62-6.29zM22.12 15.3a1.09 1.09 0 01-.66.74c-3.49 1.34-9.4 1.32-9.46 1.32-.07 0-5.98.02-9.47-1.32a1.09 1.09 0 01-.66-.74c-.26-1-.57-2.85-.57-5.97 0-3.12.31-4.96.57-5.96.04-.17.13-.32.24-.45.11-.13.26-.23.42-.3C6.02 1.28 11.93 1.3 12 1.3c.06 0 5.97-.02 9.46 1.32.16.07.31.17.42.3.11.13.2.28.24.45.26 1 .57 2.84.57 5.96s-.31 4.97-.57 5.97z"/></g></symbol></svg>