<svg width="134" height="280" viewBox="0 0 134 280" fill="none" xmlns="http://www.w3.org/2000/svg">
<path d="M66.9213 269.52C54.6013 269.52 44.3346 267.187 36.1213 262.52C27.9079 257.853 21.7479 251.133 17.6413 242.36C13.5346 233.587 11.4813 223.227 11.4813 211.28V203.72H41.1613C41.1613 204.467 41.1613 205.307 41.1613 206.24C41.1613 206.987 41.1613 207.827 41.1613 208.76C41.3479 215.48 42.0946 221.547 43.4013 226.96C44.8946 232.373 47.4146 236.667 50.9613 239.84C54.6946 243.013 60.0146 244.6 66.9213 244.6C74.2013 244.6 79.7079 242.92 83.4413 239.56C87.1746 236.013 89.6946 231.067 91.0013 224.72C92.3079 218.373 92.9613 211.093 92.9613 202.88C92.9613 190.933 90.7213 181.227 86.2413 173.76C81.9479 166.107 74.2946 161.907 63.2813 161.16C62.7213 160.973 61.9746 160.88 61.0413 160.88C60.2946 160.88 59.6413 160.88 59.0813 160.88V130.92C59.6413 130.92 60.2946 130.92 61.0413 130.92C61.7879 130.92 62.4413 130.92 63.0013 130.92C73.6413 130.547 81.2946 127.747 85.9613 122.52C90.6279 117.293 92.9613 108.613 92.9613 96.48C92.9613 86.2133 91.1879 78 87.6413 71.84C84.2813 65.68 77.4679 62.6 67.2013 62.6C56.9346 62.6 50.1213 66.0533 46.7613 72.96C43.4013 79.68 41.5346 88.36 41.1613 99C41.1613 99.7467 41.1613 100.587 41.1613 101.52C41.1613 102.267 41.1613 103.013 41.1613 103.76H11.4813V96.2C11.4813 84.0667 13.5346 73.7067 17.6413 65.12C21.7479 56.5333 27.9079 49.9067 36.1213 45.24C44.5213 40.5733 54.8813 38.24 67.2013 38.24C79.7079 38.24 90.0679 40.5733 98.2813 45.24C106.495 49.9067 112.655 56.6267 116.761 65.4C120.868 73.9867 122.921 84.3467 122.921 96.48C122.921 110.107 119.935 121.027 113.961 129.24C108.175 137.453 100.335 143.053 90.4413 146.04C97.3479 148.093 103.135 151.64 107.801 156.68C112.655 161.72 116.388 168.16 119.001 176C121.615 183.653 122.921 192.613 122.921 202.88C122.921 216.32 121.055 228.08 117.321 238.16C113.588 248.053 107.615 255.8 99.4013 261.4C91.1879 266.813 80.3613 269.52 66.9213 269.52Z" fill="#F2F2F2"/>
</svg>
