<svg xmlns="http://www.w3.org/2000/svg">
    <symbol viewBox="0 0 24 18" id="icon-slider" fill="currentColor">
      <path d="M8 0L0 9L8 18V0Z" />
      <path d="M24 9L16 0V18L24 9Z" />
    </symbol>
    <symbol viewBox="0 0 27 17" id="icon-social-vk" fill="currentColor">
      <path
        d="M0 2.33C0 1.48.51 1.02 1.54.95l3.97.03c.27 0 .44.12.53.37.41 1.26.87 2.35 1.38 3.26.5.91 1.16 1.97 1.98 3.16.07.15.19.22.35.22.12 0 .22-.06.29-.17l.08-.28.03-4.35c0-.3-.08-.5-.23-.6-.15-.11-.43-.18-.84-.23-.32-.05-.48-.24-.48-.55 0-.07.01-.12.03-.16C9 .57 10.07.02 11.82.02l1.5-.02c.67 0 1.23.15 1.68.47.44.32.66.82.66 1.51v5.71c.13.08.24.13.35.13.26 0 .49-.15.69-.46 1.95-2.58 3.01-4.31 3.17-5.18 0-.01.02-.06.05-.12.13-.25.33-.47.62-.66.28-.18.53-.31.74-.37.07-.04.15-.05.24-.05h4.13l.27.02c.35 0 .63.16.82.48.08.1.12.21.15.33.03.11.05.23.05.35.01.12.02.18.02.2v.17c-.13.69-.44 1.43-.95 2.21-.5.78-1.15 1.62-1.93 2.52-.78.91-1.27 1.5-1.46 1.79-.16.2-.24.38-.24.55 0 .14.07.29.21.45l3.89 4.63c.21.27.32.56.32.88 0 .39-.16.71-.48.96-.32.25-.7.39-1.15.42l-.45.03h-4.05c-.02 0-.05 0-.11.01-.05.01-.09.02-.1.02-.39 0-.76-.16-1.1-.48-.12-.14-.95-1.13-2.5-2.97-.09-.12-.21-.23-.37-.33-.07.27-.17.66-.28 1.16-.12.5-.2.86-.26 1.08l-.08.43c-.17.59-.55.94-1.11 1.05l-.38.03h-2.61c-1.47 0-2.94-.64-4.41-1.91-1.46-1.28-2.78-2.92-3.95-4.94C2.23 8.1 1.14 5.75.13 3.06.04 2.85 0 2.6 0 2.33Zm16.01 6.52c-.38 0-.71-.1-1.01-.29-.31-.19-.46-.46-.46-.79V1.98c0-.33-.09-.57-.26-.71-.18-.15-.49-.22-.94-.22l-1.52.05c-.76 0-1.34.13-1.73.38.78.35 1.18.92 1.18 1.71v4.42c-.04.42-.22.77-.54 1.05-.32.28-.67.41-1.06.41-.54 0-.94-.24-1.23-.73-1.38-1.97-2.41-3.85-3.09-5.63l-.24-.65-3.54-.03c-.23 0-.36.01-.39.04-.03.02-.04.1-.04.21 0 .15.02.31.05.48l.56 1.41c1.5 3.64 3.12 6.5 4.87 8.6 1.75 2.1 3.46 3.14 5.15 3.14h2.67c.1 0 .18-.03.24-.08.05-.06.09-.18.13-.34l.05-.26.51-2.21c.14-.3.26-.5.37-.6.2-.19.43-.28.69-.28.43 0 .87.24 1.31.73L20 15.59c.15.21.3.32.46.32h4.39c.54 0 .8-.12.8-.37 0-.09-.02-.17-.08-.26l-3.86-4.55c-.3-.35-.45-.73-.45-1.13 0-.4.14-.79.42-1.16.23-.33.68-.89 1.35-1.67.66-.78 1.25-1.51 1.74-2.19.5-.67.83-1.29.99-1.84l.08-.33c-.02-.03-.03-.09-.03-.16 0-.08-.01-.14-.02-.19H21.6c-.26.1-.48.25-.64.45l-.16.48c-.44 1.15-1.6 2.94-3.49 5.35-.37.34-.81.51-1.3.51Z" />
    </symbol>
    <symbol viewBox="0 0 24 19" id="icon-social-youtube" fill="currentColor">
      <path
        d="M15.85 8.79 10.61 5.3c-.1-.07-.21-.11-.33-.11-.12-.01-.24.02-.34.08-.1.05-.19.14-.25.24-.06.1-.09.21-.1.33v6.98c.01.12.04.24.1.34.06.1.15.19.25.24.11.06.22.08.34.08.12-.01.23-.04.33-.11l5.24-3.49c.09-.06.16-.14.21-.24.05-.09.08-.2.08-.31 0-.1-.03-.21-.08-.31-.05-.09-.12-.17-.21-.23ZM10.9 11.6V7.06l3.41 2.27-3.41 2.27Zm12.48-8.56c-.09-.37-.27-.71-.52-.99-.26-.29-.57-.51-.93-.65C18.21-.03 12.25 0 12 0c-.26 0-6.22-.03-9.94 1.4-.36.14-.67.36-.93.65-.25.28-.43.62-.52.99C.32 4.11 0 6.07 0 9.33c0 3.27.32 5.23.61 6.3.09.37.27.71.52.99.26.29.57.51.93.64 3.72 1.43 9.68 1.41 9.94 1.41h.07c.75 0 6.32-.04 9.86-1.41.36-.13.67-.35.93-.64.25-.28.43-.62.52-.99.29-1.07.62-3.03.62-6.3 0-3.26-.33-5.22-.62-6.29ZM22.12 15.3c-.04.17-.13.32-.24.45-.11.13-.26.23-.42.29-3.49 1.34-9.4 1.32-9.46 1.32-.07 0-5.98.02-9.47-1.32-.16-.06-.31-.16-.42-.29-.11-.13-.2-.28-.24-.45-.26-1-.57-2.85-.57-5.97 0-3.12.31-4.96.57-5.96.04-.17.13-.32.24-.45.11-.13.26-.23.42-.3C6.02 1.28 11.93 1.3 12 1.3c.06 0 5.97-.02 9.46 1.32.16.07.31.17.42.3.11.13.2.28.24.45.26 1 .57 2.84.57 5.96s-.31 4.97-.57 5.97Z" />
    </symbol>
    <symbol viewBox="0 0 20 18" id="icon-social-tg" fill="currentColor">
      <path
        d="M19.46.15c.17.15.26.38.22.61l-2.62 15.76c-.04.22-.19.4-.39.49-.21.09-.44.07-.63-.06L8.17 11.7c-.16-.1-.26-.26-.29-.44-.03-.18.02-.37.14-.51l2.61-3.27-4.36 2.91c-.2.13-.45.15-.66.04L.36 7.8c-.24-.11-.38-.36-.36-.62.01-.27.18-.49.43-.58L18.81.03c.22-.08.47-.03.65.12ZM2.32 7.32l3.54 1.77 7.56-5.05c.27-.17.63-.13.85.11.22.24.23.6.02.85l-4.8 6.01 6.44 4.29L18.2 1.65 2.32 7.32Z" />
    </symbol>
    <symbol viewBox="0 0 28 34" id="icon-social-academy" fill="currentColor">
      <path d="M14.1426 0.0157537L14 0L0.5 1.40733V26.0129L14 34L27.5 26.0129V1.40733L14.1426 0.0157537ZM25.7344 25.0151L14 31.9573L2.26561 25.0151V14.9293L13.9507 21.8451L13.9701 23.0984L5.95351 18.3548L5.94295 19.5801L13.9894 24.3885L14.0088 25.675L5.96408 20.9174L5.95351 22.1427L14 26.9511L22.1239 22.1182V20.8929V16.909L25.7432 14.7595L25.7344 25.0151ZM25.7344 13.4519L22.5147 15.3319L21.0325 16.2071L13.9666 12.0201L13.956 13.2454L19.9957 16.818L19.9429 16.8495L19.8126 16.9247L18.9536 17.4166L13.9666 14.4689L13.956 15.6942L17.8921 18.0222L16.9591 18.6314L16.938 18.6436L13.9666 16.902L13.956 18.1273L15.9029 19.2615L13.9155 20.4483L2.2973 13.5762L13.9349 6.61831L25.7344 13.4519ZM25.7344 12.2266L13.9401 5.31075L2.26561 12.2196V2.9897L14 1.76442L25.7344 2.9897V12.2266Z"
        fill="currentColor"/>
    </symbol>
  </svg>

