<svg xmlns="http://www.w3.org/2000/svg" width="24" height="19" fill="currentColor"><path fill="currentColor" d="M15.85 8.79 10.61 5.3c-.1-.07-.21-.11-.33-.11-.12-.01-.24.02-.34.08-.1.05-.19.14-.25.24-.06.1-.09.21-.1.33v6.98c.01.12.04.24.1.34.06.1.15.19.25.24.11.06.22.08.34.08.12-.01.23-.04.33-.11l5.24-3.49c.09-.06.16-.14.21-.24.05-.09.08-.2.08-.31 0-.1-.03-.21-.08-.31-.05-.09-.12-.17-.21-.23ZM10.9 11.6V7.06l3.41 2.27-3.41 2.27Zm12.48-8.56c-.09-.37-.27-.71-.52-.99-.26-.29-.57-.51-.93-.65C18.21-.03 12.25 0 12 0c-.26 0-6.22-.03-9.94 1.4-.36.14-.67.36-.93.65-.25.28-.43.62-.52.99C.32 4.11 0 6.07 0 9.33c0 3.27.32 5.23.61 6.3.09.37.27.71.52.99.26.29.57.51.93.64 3.72 1.43 9.68 1.41 9.94 1.41h.07c.75 0 6.32-.04 9.86-1.41.36-.13.67-.35.93-.64.25-.28.43-.62.52-.99.29-1.07.62-3.03.62-6.3 0-3.26-.33-5.22-.62-6.29ZM22.12 15.3c-.04.17-.13.32-.24.45-.11.13-.26.23-.42.29-3.49 1.34-9.4 1.32-9.46 1.32-.07 0-5.98.02-9.47-1.32-.16-.06-.31-.16-.42-.29-.11-.13-.2-.28-.24-.45-.26-1-.57-2.85-.57-5.97 0-3.12.31-4.96.57-5.96.04-.17.13-.32.24-.45.11-.13.26-.23.42-.3C6.02 1.28 11.93 1.3 12 1.3c.06 0 5.97-.02 9.46 1.32.16.07.31.17.42.3.11.13.2.28.24.45.26 1 .57 2.84.57 5.96s-.31 4.97-.57 5.97Z"/></svg>
