<svg xmlns="http://www.w3.org/2000/svg" width="20" height="18" fill="currentColor"><path fill="currentColor"
fill-rule="evenodd"
d="M19.46.15c.17.15.26.38.22.61l-2.62 15.76c-.04.22-.19.4-.39.49-.21.09-.44.07-.63-.06L8.17 11.7c-.16-.1-.26-.26-.29-.44-.03-.18.02-.37.14-.51l2.61-3.27-4.36 2.91c-.2.13-.45.15-.66.04L.36 7.8c-.24-.11-.38-.36-.36-.62.01-.27.18-.49.43-.58L18.81.03c.22-.08.47-.03.65.12ZM2.32 7.32l3.54 1.77
 7.56-5.05c.27-.17.63-.13.85.11.22.24.23.6.02.85l-4.8 6.01 6.44 4.29L18.2 1.65 2.32 7.32Z"/></svg>
